# xmcd CD database file
#
# Track frame offsets:
#	150
#	17866
#	37216
#	55029
#	69939
#	83382
#	106670
#	125822
#	150090
#	184361
#
# Disc length: 2685 seconds
#
# Revision: 2
# Processed by: cddbd v1.5.1PL2 Copyright (c) Steve Scherf et al.
# Submitted via: CDex 1.51
#
DISCID=750a7b0a
DTITLE=Albert Cummings - True To Yourself
DYEAR=2004
DGENRE=Blues
TTITLE0=Man On Your Mind
TTITLE1=Work It Out
TTITLE2=Come Up For Air
TTITLE3=Blues Makes Me Feel So Good
TTITLE4=Where Did I Go Wrong
TTITLE5=Your Sweet Love
TTITLE6=Sleep
TTITLE7=Separately
TTITLE8=Lonely Bed
TTITLE9=Follow Your Soul
EXTD=YEAR: 2004
EXTT0=
EXTT1=
EXTT2=
EXTT3=
EXTT4=
EXTT5=
EXTT6=
EXTT7=
EXTT8=
EXTT9=
PLAYORDER=
